<svg xmlns="http://www.w3.org/2000/svg" xmlns:xlink="http://www.w3.org/1999/xlink" version="1.1" width="500" height="155">


<g transform="matrix(1 0 0 1 249 81)" style=""><path fill="#5272ff" opacity="1" d="M-179.62 73.74L-223.76-52.07Q-226.03-58.44-228.31-62.87Q-230.58-67.31-233.42-70.04Q-236.27-72.77-240.02-74.13Q-243.78-75.50-248.78-75.95L-248.78-75.95L-248.78-80.50Q-247.87-80.50-245.25-80.73Q-242.64-80.96-241.05-80.96L-241.05-80.96Q-236.27-80.96-230.92-80.16Q-225.58-79.37-220.34-76.41Q-215.11-73.45-210.33-67.65Q-205.56-61.85-202.14-52.07L-202.14-52.07L-171.66 35.75L-147.32-36.37L-152.78-52.07Q-155.05-58.44-157.33-62.87Q-159.60-67.31-162.44-70.04Q-165.29-72.77-169.04-74.13Q-172.80-75.50-177.80-75.95L-177.80-75.95L-177.80-80.50Q-176.89-80.50-174.27-80.73Q-171.66-80.96-170.07-80.96L-170.07-80.96Q-165.29-80.96-159.94-80.16Q-154.60-79.37-149.36-76.41Q-144.13-73.45-139.35-67.65Q-134.58-61.85-131.16-52.07L-131.16-52.07L-100.68 35.75L-61.78-78.68L-51.99-78.68L-104.09 73.74L-108.64 73.74L-142.31-22.04L-175.07 73.74L-179.62 73.74Z"/><path fill="#5272ff" opacity="1" d="M21.72-0.20L0.10-0.20L0.10 60.32Q5.34 61.91 10.91 62.71Q16.48 63.50 21.72 63.50L21.72 63.50Q42.42 63.50 53.68 55.31Q64.94 47.12 64.94 31.65L64.94 31.65Q64.94 16.18 54.02 7.99Q43.10-0.20 21.72-0.20L21.72-0.20ZM0.10-9.30L21.72-9.30Q28.54-9.30 35.03-11.23Q41.51-13.16 46.63-17.03Q51.75-20.90 54.93-26.59Q58.12-32.27 58.12-40.01L58.12-40.01Q58.12-48.20 54.25-54.00Q50.38-59.80 44.47-63.55Q38.55-67.31 31.27-69.01Q23.99-70.72 17.17-70.72L17.17-70.72Q12.84-70.72 8.18-70.04Q3.52-69.36 0.10-68.45L0.10-68.45L0.10-9.30ZM-40.85-78.68L18.30-78.68Q27.18-78.68 37.98-77.43Q48.79-76.18 58.00-71.97Q67.22-67.76 73.47-59.91Q79.73-52.07 79.73-38.87L79.73-38.87Q79.73-28.63 72.68-19.87Q65.62-11.12 50.15-5.88L50.15-5.88Q61.30-4.06 68.47-0.76Q75.63 2.53 79.96 7.20Q84.28 11.86 85.99 17.78Q87.69 23.69 87.69 30.52L87.69 30.52Q87.69 43.26 81.89 51.33Q76.09 59.41 67.10 63.85Q58.12 68.28 46.97 69.87Q35.82 71.47 25.13 71.47L25.13 71.47L-20.37 71.47L-20.37-51.38Q-20.37-61.62-23.21-67.88Q-26.06-74.13-36.30-74.13L-36.30-74.13L-40.85-74.13L-40.85-78.68Z"/><path fill="#5272ff" opacity="1" d="M246.26 66.92L246.26 71.47Q242.39 72.60 237.16 72.60L237.16 72.60Q233.29 72.60 228.17 71.69Q223.05 70.78 217.71 67.71Q212.36 64.64 207.24 58.73Q202.12 52.81 198.48 43.03L198.48 43.03L192.80 28.24L129.10 28.24L110.90 71.47L100.66 71.47L164.36-78.68L171.18-78.68L221.23 43.03Q223.96 49.40 226.35 53.84Q228.74 58.27 231.70 61.00Q234.66 63.73 238.07 65.10Q241.48 66.46 246.26 66.92L246.26 66.92ZM160.95-46.83L132.51 19.14L188.25 19.14L160.95-46.83Z"/></g>
</svg>